<svg xmlns="http://www.w3.org/2000/svg" width="25" height="25" viewBox="0 0 25 25">
  <g id="accel" transform="translate(0 -21.226)">
    <path id="Path_1" data-name="Path 1" d="M25,35.747a15.744,15.744,0,0,0-3.6-10.191.706.706,0,0,0-.057-.078.646.646,0,0,0-.067-.066A11.646,11.646,0,0,0,12.5,21.226a11.647,11.647,0,0,0-8.772,4.187.666.666,0,0,0-.067.066.7.7,0,0,0-.057.078A15.745,15.745,0,0,0,0,35.747,15.688,15.688,0,0,0,3.66,46.014h0a.556.556,0,0,0,.869,0c.01-.012.02-.025.029-.037l1.894-2.2a.8.8,0,0,0,0-1.01.556.556,0,0,0-.869,0L4.108,44.486a14.146,14.146,0,0,1-2.861-8.025H3.337a.722.722,0,0,0,0-1.428H1.246a14.2,14.2,0,0,1,2.865-8.02l1.474,1.713a.556.556,0,0,0,.869,0,.8.8,0,0,0,0-1.01L4.981,26a10.484,10.484,0,0,1,6.9-3.329V25.1a.622.622,0,1,0,1.23,0V22.674A10.484,10.484,0,0,1,20.019,26l-1.474,1.713a.8.8,0,0,0,0,1.01.556.556,0,0,0,.869,0l1.474-1.713a14.2,14.2,0,0,1,2.865,8.02H21.663a.722.722,0,0,0,0,1.428h2.091a14.147,14.147,0,0,1-2.861,8.025l-1.478-1.717a.556.556,0,0,0-.869,0,.8.8,0,0,0,0,1.01l1.925,2.236a.573.573,0,0,0,.435.209.542.542,0,0,0,.231-.052.615.615,0,0,0,.2-.157A15.688,15.688,0,0,0,25,35.747Z" transform="translate(0 0)" fill="#fb0f38"/>
    <path id="Path_2" data-name="Path 2" d="M129.772,87.223a.622.622,0,0,0-.809.346l-1.8,4.491a2.367,2.367,0,0,0-.252-.015,2.309,2.309,0,0,0-2.066,1.267,2.475,2.475,0,0,0,.285,2.61,1.013,1.013,0,0,0,.221.221,2.657,2.657,0,0,0,1.56.537,2.308,2.308,0,0,0,2.066-1.267,2.474,2.474,0,0,0-.284-2.61,1.013,1.013,0,0,0-.222-.222c-.045-.033-.092-.063-.138-.093l1.785-4.456A.623.623,0,0,0,129.772,87.223Zm-1.9,7.625a1.069,1.069,0,0,1-.956.587,1.387,1.387,0,0,1-.8-.276,1.229,1.229,0,0,1-.16-1.282,1.069,1.069,0,0,1,.956-.587,1.212,1.212,0,0,1,.388.066l.012.006.041.014a1.653,1.653,0,0,1,.354.19A1.23,1.23,0,0,1,127.868,94.848Z" transform="translate(-114.419 -59.049)" fill="#fb0f38"/>
  </g>
</svg>
