<svg xmlns="http://www.w3.org/2000/svg" width="25" height="24.96" viewBox="0 0 25 24.96">
  <path id="facebook" d="M15.5,3a12.493,12.493,0,0,0-1.868,24.846l.652.1v-9.85H11.332v-2h2.953V13.439a4.706,4.706,0,0,1,1.042-3.388,3.877,3.877,0,0,1,2.945-1.017,12.367,12.367,0,0,1,1.879.113v1.637H18.76a2.039,2.039,0,0,0-1.772,1.026,4,4,0,0,0-.441,2v2.283h3.479l-.31,2H16.548V27.96l.645-.088A12.493,12.493,0,0,0,15.5,3Zm0,1.136A11.334,11.334,0,0,1,17.684,26.6V19.23h3.007l.66-4.272H17.684V13.811a3.08,3.08,0,0,1,.29-1.435.764.764,0,0,1,.787-.455h2.527v-3.8l-.493-.067A17.325,17.325,0,0,0,18.272,7.9a5.04,5.04,0,0,0-3.764,1.365,5.828,5.828,0,0,0-1.359,4.176v1.519H10.2v4.272h2.953v7.332A11.333,11.333,0,0,1,15.5,4.136Z" transform="translate(-3 -3)" fill="#fb0f38"/>
</svg>
