<svg xmlns="http://www.w3.org/2000/svg" width="25" height="25" viewBox="0 0 25 25">
  <path id="insta" d="M10.386,3A7.4,7.4,0,0,0,3,10.386V20.614A7.4,7.4,0,0,0,10.386,28H20.614A7.4,7.4,0,0,0,28,20.614V10.386A7.4,7.4,0,0,0,20.614,3Zm0,1.136H20.614a6.242,6.242,0,0,1,6.25,6.25V20.614a6.242,6.242,0,0,1-6.25,6.25H10.386a6.242,6.242,0,0,1-6.25-6.25V10.386A6.242,6.242,0,0,1,10.386,4.136ZM22.318,7.545a1.136,1.136,0,1,0,1.136,1.136A1.136,1.136,0,0,0,22.318,7.545ZM15.5,9.25a6.25,6.25,0,1,0,6.25,6.25A6.259,6.259,0,0,0,15.5,9.25Zm0,1.136A5.114,5.114,0,1,1,10.386,15.5,5.105,5.105,0,0,1,15.5,10.386Z" transform="translate(-3 -3)" fill="#fb0f38"/>
</svg>
