<svg xmlns="http://www.w3.org/2000/svg" width="25" height="25" viewBox="0 0 25 25">
  <g id="speed" transform="translate(0.002)">
    <path id="Path_3" data-name="Path 3" d="M19.9,0C19.072,8.008,7.688,2.747,3.365,9.416a10.8,10.8,0,0,0-1.213,3.019,8.036,8.036,0,0,0-.872,1.017,6.391,6.391,0,0,0-.955,5.841A8.13,8.13,0,0,0,4.78,23.968a11.593,11.593,0,0,0,7.255.769,9.546,9.546,0,0,0,5.8-3.587A6.81,6.81,0,0,0,18.986,18.6a9.242,9.242,0,0,0,3.442-2.7c1.536-2.873-1.266-5.164,2.57-7.186-2.37-.96-3.816.033-5.2,1.974-1.5,2.621-7.111-.482-1.85-2.094C22.469,7.207,22.057,2.94,19.9,0ZM9.354,17.276c.028,0,.058,0,.086,0l3.293-1.986a1.01,1.01,0,0,1,1.21.138.612.612,0,0,1-.172.975l-3.26,1.967a1.127,1.127,0,0,1-1.157.794,1.078,1.078,0,0,1-1.173-.944.791.791,0,0,1,.056-.287L4.883,15.848a.343.343,0,0,1-.088-.547.568.568,0,0,1,.68-.071l3.411,2.124a1.451,1.451,0,0,1,.467-.077Zm4.281-5.656c4.058,1.886,5.327,5.7,2.982,8.965s-7.076,4.289-11.134,2.4S.155,17.29,2.5,14.023s7.076-4.289,11.134-2.4Z" transform="translate(0)" fill="#fb0f38" fill-rule="evenodd"/>
  </g>
</svg>
